PathFileType	4	(X/Y/Z)	C:\Github\FootballMatch-and-Movement-Analysis\output\test Exam_2026-03-06_135002_tvc2_Sports2D\test Exam_2026-03-06_135002_tvc2_Sports2D_m_person00.trc
DataRate	CameraRate	NumFrames	NumMarkers	Units	OrigDataRate	OrigDataStartFrame	OrigNumFrames
30.0	30.0	9	22	m	30.0	193	516
Frame#	Time	Hip			RHip			RKnee			RAnkle			RBigToe			RSmallToe			RHeel			LHip			LKnee			LAnkle			LBigToe			LSmallToe			LHeel			Neck			Head			Nose			RShoulder			RElbow			RWrist			LShoulder			LElbow			LWrist			
		X1	Y1	Z1	X2	Y2	Z2	X3	Y3	Z3	X4	Y4	Z4	X5	Y5	Z5	X6	Y6	Z6	X7	Y7	Z7	X8	Y8	Z8	X9	Y9	Z9	X10	Y10	Z10	X11	Y11	Z11	X12	Y12	Z12	X13	Y13	Z13	X14	Y14	Z14	X15	Y15	Z15	X16	Y16	Z16	X17	Y17	Z17	X18	Y18	Z18	X19	Y19	Z19	X20	Y20	Z20	X21	Y21	Z21	X22	Y22	Z22
193	6.445825242718446	0.7457708475812259	0.8977980312997672	0.0301	0.6568350646780884	0.8541552769067638	0.0301	0.6867798864046407	0.49809029474038496	0.129	0.7083793524735295	0.15729594236140554	0.023	0.6862905927194042	0.019560682156764514	0.2179	0.6445138473474927	0.03260985179965328	0.1804	0.7344170929304019	0.09682812715832367	-0.0119	0.8418754247626299	0.8914455243863119	0.0301	0.8591738911305562	0.5740296239167035	0.129	0.8915678883476545	0.11872196368553266	0.023	0.8881297727817561	-0.02484650472027024	0.2179	0.9470375080533224	-0.023739909489420893	0.1804	0.8797744516242784	0.05307416820893686	-0.0119	0.6728535129502685	1.476500930415398	0.0008	0.6419099519571024	1.7132977679103714	0.0655	0.6567977282214518	1.5835957420180966	0.1076	0.5246999049418003	1.3514785399900309	-0.01275	0.3891122833508569	1.145209925285501	0.0702	0.5257500164811129	0.9995382667676282	0.1076	0.8596783960258911	1.404797474638398	-0.01275	1.0588531399792533	1.2320156831592806	0.0702	0.9492127640153688	1.0440895133742267	0.1076
194	6.479223300970874	0.7446638192272101	0.8967403155806187	0.0301	0.6556921986474384	0.8527222294280867	0.0301	0.684701348401385	0.49498423458082225	0.129	0.7074878566331506	0.15723771646168694	0.023	0.6832929630379827	0.02128803777722702	0.2179	0.6422159318028845	0.03528221482952302	0.1804	0.7355243072046954	0.10069300959708934	-0.0119	0.8407091278543716	0.8906573975607037	0.0301	0.8573596160357202	0.5695324551706131	0.129	0.8876076465377432	0.11853021326662189	0.023	0.8840985166930474	-0.020930971110551082	0.2179	0.9379492973273408	-0.02317041148511229	0.1804	0.8745170146953433	0.05456732967367996	-0.0119	0.6747315019316251	1.4770886850098013	0.0008	0.6442670164206834	1.7134191679391644	0.0655	0.6603728803554167	1.5829901316688963	0.1076	0.5253312781209001	1.3501341516791003	-0.01275	0.39065127007758343	1.144749150522145	0.0702	0.5220421941441301	1.0009054136517075	0.1076	0.86057333002536	1.404348222452354	-0.01275	1.059468715604129	1.2305452672087884	0.0702	0.9498981622548303	1.0426677296834304	0.1076
195	6.512621359223301	0.7451608057249683	0.8973684969135941	0.0301	0.6555917481532484	0.8512594159521667	0.0301	0.6830062319288516	0.49377795050854184	0.129	0.7071626947289418	0.15509202853950121	0.023	0.6780479633297981	0.023923279913864694	0.2179	0.6374224632214786	0.037882227427664804	0.1804	0.7365820893352641	0.10451510239307596	-0.0119	0.8400068155823865	0.8900249842674279	0.0301	0.8565410133991435	0.5607808562159321	0.129	0.8822067974733975	0.12144860112862203	0.023	0.8781982458815912	-0.009324229631082597	0.2179	0.9243657655551766	-0.017679092727346007	0.1804	0.8702763839133923	0.057362214673627086	-0.0119	0.6766497869485687	1.4768820412079406	0.0008	0.6447637032034123	1.7135549245758726	0.0655	0.662646398488795	1.582909025067754	0.1076	0.5249710492927043	1.349186125748564	-0.01275	0.39178789466091196	1.1445980349364209	0.0702	0.5175964266225344	1.0022596153393637	0.1076	0.860801264570092	1.4039178410130784	-0.01275	1.0603062137208263	1.230013410981404	0.0702	0.9513316984841277	1.0422389546108428	0.1076
196	6.546019417475728	0.7455643756005378	0.8980658763553971	0.0301	0.6552565632265549	0.850486765642284	0.0301	0.6804117148148868	0.49354342810329266	0.129	0.7082415740929532	0.1521748045344064	0.023	0.6729374300174794	0.02618515139490988	0.2179	0.6332142011407117	0.03975405643196632	0.1804	0.7371002780919859	0.1048788486045629	-0.0119	0.8398916193527025	0.8880784982185567	0.0301	0.8557277398036757	0.5526832424193012	0.129	0.8775237696795206	0.12357021155666616	0.023	0.8733187771626758	0.000707468296087333	0.2179	0.914502105883649	-0.01147685281892009	0.1804	0.867566813128233	0.05841001812676755	-0.0119	0.6777569777897348	1.4753058652561792	0.0008	0.6449843474877346	1.7126857952755512	0.0655	0.6636770165316122	1.5825498175038588	0.1076	0.5246184737276393	1.3492459979256728	-0.01275	0.3923896058991076	1.1443491899432887	0.0702	0.5160308647769157	1.002704117240225	0.1076	0.8607760165909574	1.402452432581784	-0.01275	1.0606738263660889	1.2299378624227009	0.0702	0.9524532990331909	1.0419121429886382	0.1076
197	6.579417475728155	0.744126116447021	0.8972731723040122	0.0301	0.6539330743390308	0.8504912502512016	0.0301	0.6775596872665639	0.49342902118413473	0.129	0.7103488246423713	0.15107773969781227	0.023	0.6711720984701994	0.028018949217573152	0.2179	0.6324732226000764	0.041412619040035174	0.1804	0.7380050157977089	0.10275142353649426	-0.0119	0.8402329642425456	0.8844817937928792	0.0301	0.8539568099046271	0.5484738540994225	0.129	0.8745048707782727	0.12363147598426924	0.023	0.8701258786756172	0.002524127623540695	0.2179	0.9122055185137666	-0.007643844377441256	0.1804	0.8651424269838177	0.058147806650717185	-0.0119	0.6776750071482143	1.4721103690639015	0.0008	0.6465327225315219	1.7107921908220198	0.0655	0.6642373238740527	1.5812604864892297	0.1076	0.5252585962213104	1.3501187316552286	-0.01275	0.39323223577851923	1.144052710747688	0.0702	0.5183647833566157	1.002021490490324	0.1076	0.8609050391721799	1.4006572031513775	-0.01275	1.0604211287660295	1.230182262004174	0.0702	0.9527858391253957	1.0415312792127012	0.1076
198	6.612815533980583	0.7418324846816388	0.8951047274438214	0.0301	0.6524252518283377	0.8510340260942798	0.0301	0.6759376358135103	0.49251025819290034	0.129	0.7112931046103881	0.15217262948601445	0.023	0.6710061271868266	0.028525124200591546	0.2179	0.6335952467654961	0.042552846688503655	0.1804	0.7391477473838872	0.10036786099086101	-0.0119	0.8409531730436579	0.8808196044068476	0.0301	0.851983792681024	0.545353367546965	0.129	0.8725633205332879	0.12316192606768334	0.023	0.8664437424968452	-0.0018111205902507609	0.2179	0.9134551178220426	-0.00769885312455003	0.1804	0.8623477427708778	0.05760219113176663	-0.0119	0.6769268089077501	1.4689140122400177	0.0008	0.6487300285912654	1.7088304858877545	0.0655	0.6647120956059792	1.5800161738690146	0.1076	0.5265224162060657	1.3502374852012158	-0.01275	0.3948809054151671	1.1440980812351182	0.0702	0.5233608120069394	1.0005721372070073	0.1076	0.8612509081881061	1.3994845978056958	-0.01275	1.0600536427294218	1.2302750084920384	0.0702	0.9524012596203155	1.0406801381422093	0.1076
199	6.64621359223301	0.7404228567799684	0.8920489189630746	0.0301	0.6519701179957762	0.8509997216120994	0.0301	0.6757167084785495	0.4898869896636664	0.129	0.710465741897232	0.15366185568662338	0.023	0.6701081853136993	0.026882978225200097	0.2179	0.6339155902960525	0.04229880432796019	0.1804	0.739567753445595	0.09832195694735259	-0.0119	0.8424270619697192	0.8770984322387954	0.0301	0.8512940225891392	0.5408129227329803	0.129	0.8715710110500213	0.12161574456592239	0.023	0.860844967890665	-0.007643985490259694	0.2179	0.9151650795178778	-0.011008501730967036	0.1804	0.860441647452919	0.056407306308036705	-0.0119	0.67648942249907	1.4666955120252978	0.0008	0.6498397143034653	1.7073049837755148	0.0655	0.6646381082972803	1.579953710816406	0.1076	0.527316760678866	1.3479091768776814	-0.01275	0.39714602812338534	1.1437547410005442	0.0702	0.5286191442929273	0.9994222875336356	0.1076	0.8611258454994223	1.3983874387658548	-0.01275	1.0604806960081883	1.2299670248878665	0.0702	0.9516479359322667	1.0389627563853376	0.1076
200	6.679611650485437	0.7400254108037896	0.8894207396663468	0.0301	0.6526764500397699	0.8494954125571056	0.0301	0.6754557197348082	0.48653300362424384	0.129	0.7098531198569569	0.15454759733778559	0.023	0.6693065396473201	0.02456406598773927	0.2179	0.6331686116558404	0.0405211885256905	0.1804	0.7394705187923678	0.09663828144055113	-0.0119	0.8440886284055193	0.8740587212452197	0.0301	0.8513909279164372	0.5397607711977628	0.129	0.8713928354533498	0.11916703229926195	0.023	0.8548966100521965	-0.01129811075375287	0.2179	0.9164665153296416	-0.013996153097155517	0.1804	0.8601972355996146	0.056037157811053374	-0.0119	0.6765659688952452	1.4645056867574326	0.0008	0.6486482710899739	1.7054196541458222	0.0655	0.662913173361492	1.5800506408594626	0.1076	0.5273841814497636	1.3439142723174442	-0.01275	0.39916037751537825	1.1414039836325631	0.0702	0.5323873490029942	0.9989066159317	0.1076	0.8601992222556496	1.3968095780506928	-0.01275	1.062084141804487	1.2299207950121702	0.0702	0.9508963691487985	1.0372718394632094	0.1076
201	6.713009708737864	0.7400740502233484	0.8885965340607832	0.0301	0.6529148253335022	0.8485907665482367	0.0301	0.6734271704625215	0.4848691269449255	0.129	0.710075416467876	0.15561173225542363	0.023	0.670184209962956	0.023258920464166898	0.2179	0.632134119213021	0.03809071281871823	0.1804	0.7396378697626083	0.09784396916577119	-0.0119	0.844871034254917	0.8755024108250052	0.0301	0.8507423981801853	0.5474805430171591	0.129	0.8714767446144951	0.11845987090695145	0.023	0.8512587178445689	-0.010903331750326881	0.2179	0.9148478590656113	-0.013983562129696231	0.1804	0.8609019477211636	0.05800928491070648	-0.0119	0.6760524564154282	1.4626783401873955	0.0008	0.6449662718164397	1.702390587092478	0.0655	0.6594100050233005	1.5783826920067054	0.1076	0.5269488497443088	1.3401519842062344	-0.01275	0.40016693892926447	1.1361060543251271	0.0702	0.534265162714152	0.9969354017343292	0.1076	0.8588100029441755	1.3949512194572447	-0.01275	1.0638087885342324	1.2305836379123278	0.0702	0.9505480402759792	1.0359849054452461	0.1076
